HIERARCHY
ROOT Hips
{
	OFFSET -14.64140 90.27770 -84.91600
	CHANNELS 6 Xposition Yposition Zposition Zrotation Xrotation Yrotation
	JOINT Spine
	{
		OFFSET 0.00000 13.20850 -1.60436
		CHANNELS 3 Zrotation Xrotation Yrotation
		JOINT Spine1
		{
			OFFSET 0.00000 8.61716 0.00000
			CHANNELS 3 Zrotation Xrotation Yrotation
			JOINT Spine2
			{
				OFFSET 0.00000 8.61717 0.00000
				CHANNELS 3 Zrotation Xrotation Yrotation
				JOINT Spine3
				{
					OFFSET 0.00000 8.61717 0.00000
					CHANNELS 3 Zrotation Xrotation Yrotation
					JOINT Neck
					{
						OFFSET 0.00000 11.07920 1.10792
						CHANNELS 3 Zrotation Xrotation Yrotation
						JOINT Neck1
						{
							OFFSET 0.00000 7.08032 0.00000
							CHANNELS 3 Zrotation Xrotation Yrotation
							JOINT Head
							{
								OFFSET 0.00000 7.08031 0.00000
								CHANNELS 3 Zrotation Xrotation Yrotation
								End site
								{
									OFFSET 0.00000 0.00000 0.00000
								}
							}
						}
					}
					JOINT RightShoulder
					{
						OFFSET -0.01000 7.91373 5.19711
						CHANNELS 3 Zrotation Xrotation Yrotation
						JOINT RightArm
						{
							OFFSET -18.41580 0.00000 0.00000
							CHANNELS 3 Zrotation Xrotation Yrotation
							JOINT RightForeArm
							{
								OFFSET -29.11090 0.00000 0.00000
								CHANNELS 3 Zrotation Xrotation Yrotation
								JOINT RightHand
								{
									OFFSET -24.65040 0.00000 0.00000
									CHANNELS 3 Zrotation Xrotation Yrotation
									JOINT RightHandThumb1
									{
										OFFSET -5.35114 -0.85590 3.97906
										CHANNELS 3 Zrotation Xrotation Yrotation
										JOINT RightHandThumb2
										{
											OFFSET -4.52789 0.00000 0.00000
											CHANNELS 3 Zrotation Xrotation Yrotation
											JOINT RightHandThumb3
											{
												OFFSET -2.46976 0.00000 0.00000
												CHANNELS 3 Zrotation Xrotation Yrotation
												End site
												{
													OFFSET 0.00000 0.00000 0.00000
												}
											}
										}
									}
									JOINT RightHandIndex1
									{
										OFFSET -14.26970 0.00000 2.88139
										CHANNELS 3 Zrotation Xrotation Yrotation
										JOINT RightHandIndex2
										{
											OFFSET -5.48836 0.00000 0.00000
											CHANNELS 3 Zrotation Xrotation Yrotation
											JOINT RightHandIndex3
											{
												OFFSET -3.01859 0.00000 0.00000
												CHANNELS 3 Zrotation Xrotation Yrotation
												End site
												{
													OFFSET 0.00000 0.00000 0.00000
												}
											}
										}
									}
									JOINT RightHandMiddle1
									{
										OFFSET -14.26970 0.00000 -0.09147
										CHANNELS 3 Zrotation Xrotation Yrotation
										JOINT RightHandMiddle2
										{
											OFFSET -6.17441 0.00000 0.00000
											CHANNELS 3 Zrotation Xrotation Yrotation
											JOINT RightHandMiddle3
											{
												OFFSET -3.56743 0.00000 0.00000
												CHANNELS 3 Zrotation Xrotation Yrotation
												End site
												{
													OFFSET 0.00000 0.00000 0.00000
												}
											}
										}
									}
									JOINT RightHandRing1
									{
										OFFSET -12.69180 0.00000 -3.06433
										CHANNELS 3 Zrotation Xrotation Yrotation
										JOINT RightHandRing2
										{
											OFFSET -5.62556 0.00000 0.00000
											CHANNELS 3 Zrotation Xrotation Yrotation
											JOINT RightHandRing3
											{
												OFFSET -3.56744 0.00000 0.00000
												CHANNELS 3 Zrotation Xrotation Yrotation
												End site
												{
													OFFSET 0.00000 0.00000 0.00000
												}
											}
										}
									}
									JOINT RightHandPinky1
									{
										OFFSET -11.11390 0.00000 -6.03719
										CHANNELS 3 Zrotation Xrotation Yrotation
										JOINT RightHandPinky2
										{
											OFFSET -4.52789 0.00000 0.00000
											CHANNELS 3 Zrotation Xrotation Yrotation
											JOINT RightHandPinky3
											{
												OFFSET -2.46976 0.00000 0.00000
												CHANNELS 3 Zrotation Xrotation Yrotation
												End site
												{
													OFFSET 0.00000 0.00000 0.00000
												}
											}
										}
									}
								}
							}
						}
					}
					JOINT LeftShoulder
					{
						OFFSET 0.01000 7.91373 5.19711
						CHANNELS 3 Zrotation Xrotation Yrotation
						JOINT LeftArm
						{
							OFFSET 18.41580 0.00000 0.00000
							CHANNELS 3 Zrotation Xrotation Yrotation
							JOINT LeftForeArm
							{
								OFFSET 29.11090 0.00000 0.00000
								CHANNELS 3 Zrotation Xrotation Yrotation
								JOINT LeftHand
								{
									OFFSET 24.65040 0.00000 0.00000
									CHANNELS 3 Zrotation Xrotation Yrotation
									JOINT LeftHandThumb1
									{
										OFFSET 5.35114 -0.85590 3.97906
										CHANNELS 3 Zrotation Xrotation Yrotation
										JOINT LeftHandThumb2
										{
											OFFSET 4.52789 0.00000 0.00000
											CHANNELS 3 Zrotation Xrotation Yrotation
											JOINT LeftHandThumb3
											{
												OFFSET 2.46977 0.00000 0.00000
												CHANNELS 3 Zrotation Xrotation Yrotation
												End site
												{
													OFFSET 0.00000 0.00000 0.00000
												}
											}
										}
									}
									JOINT LeftHandIndex1
									{
										OFFSET 14.26970 0.00000 2.88139
										CHANNELS 3 Zrotation Xrotation Yrotation
										JOINT LeftHandIndex2
										{
											OFFSET 5.48836 0.00000 0.00000
											CHANNELS 3 Zrotation Xrotation Yrotation
											JOINT LeftHandIndex3
											{
												OFFSET 3.01859 0.00000 0.00000
												CHANNELS 3 Zrotation Xrotation Yrotation
												End site
												{
													OFFSET 0.00000 0.00000 0.00000
												}
											}
										}
									}
									JOINT LeftHandMiddle1
									{
										OFFSET 14.26970 0.00000 -0.09147
										CHANNELS 3 Zrotation Xrotation Yrotation
										JOINT LeftHandMiddle2
										{
											OFFSET 6.17440 0.00000 0.00000
											CHANNELS 3 Zrotation Xrotation Yrotation
											JOINT LeftHandMiddle3
											{
												OFFSET 3.56744 0.00000 0.00000
												CHANNELS 3 Zrotation Xrotation Yrotation
												End site
												{
													OFFSET 0.00000 0.00000 0.00000
												}
											}
										}
									}
									JOINT LeftHandRing1
									{
										OFFSET 12.69180 0.00000 -3.06433
										CHANNELS 3 Zrotation Xrotation Yrotation
										JOINT LeftHandRing2
										{
											OFFSET 5.62556 0.00000 0.00000
											CHANNELS 3 Zrotation Xrotation Yrotation
											JOINT LeftHandRing3
											{
												OFFSET 3.56744 0.00000 0.00000
												CHANNELS 3 Zrotation Xrotation Yrotation
												End site
												{
													OFFSET 0.00000 0.00000 0.00000
												}
											}
										}
									}
									JOINT LeftHandPinky1
									{
										OFFSET 11.11390 0.00000 -6.03719
										CHANNELS 3 Zrotation Xrotation Yrotation
										JOINT LeftHandPinky2
										{
											OFFSET 4.52789 0.00000 0.00000
											CHANNELS 3 Zrotation Xrotation Yrotation
											JOINT LeftHandPinky3
											{
												OFFSET 2.46976 0.00000 0.00000
												CHANNELS 3 Zrotation Xrotation Yrotation
												End site
												{
													OFFSET 0.00000 0.00000 0.00000
												}
											}
										}
									}
								}
							}
						}
					}
					JOINT pCube4
					{
						OFFSET 0.00000 10.91090 1.10792
						CHANNELS 3 Zrotation Xrotation Yrotation
						End site
						{
							OFFSET 0.00000 0.00000 0.00000
						}
					}
				}
			}
		}
	}
	JOINT RightUpLeg
	{
		OFFSET -9.98441 0.00000 0.00000
		CHANNELS 3 Zrotation Xrotation Yrotation
		JOINT RightLeg
		{
			OFFSET 0.00000 -42.11790 0.00000
			CHANNELS 3 Zrotation Xrotation Yrotation
			JOINT RightFoot
			{
				OFFSET 0.00000 -45.00020 -0.00001
				CHANNELS 3 Zrotation Xrotation Yrotation
				JOINT RightForeFoot
				{
					OFFSET 0.00000 -3.74820 0.00000
					CHANNELS 3 Zrotation Xrotation Yrotation
					JOINT RightToeBase
					{
						OFFSET 0.00000 0.06325 14.43120
						CHANNELS 3 Zrotation Xrotation Yrotation
						End site
						{
							OFFSET 0.00000 0.00000 0.00000
						}
					}
				}
			}
		}
	}
	JOINT LeftUpLeg
	{
		OFFSET 9.98441 0.00000 0.00000
		CHANNELS 3 Zrotation Xrotation Yrotation
		JOINT LeftLeg
		{
			OFFSET 0.00000 -42.11800 0.00000
			CHANNELS 3 Zrotation Xrotation Yrotation
			JOINT LeftFoot
			{
				OFFSET 0.00000 -45.00070 0.00000
				CHANNELS 3 Zrotation Xrotation Yrotation
				JOINT LeftForeFoot
				{
					OFFSET 0.00000 -3.74824 0.00000
					CHANNELS 3 Zrotation Xrotation Yrotation
					JOINT LeftToeBase
					{
						OFFSET 0.00000 0.06325 14.43110
						CHANNELS 3 Zrotation Xrotation Yrotation
						End site
						{
							OFFSET 0.00000 0.00000 0.00000
						}
					}
				}
			}
		}
	}
}
MOTION
Frames: 4
Frame Time: 0.050000
-0.014313380279225397 -0.037546064963502906 -0.030791336745902467 -0.04013519208223252 -0.008952360597607938 0.013213177587049069 -1.2533710136854275 1.6151594935257072 -0.9808395115081866 -0.9309075991472421 3.900612511663007 0.40657283330431954 -1.2136928907509457 -1.908550073880383 -0.33358985132835606 0.5626231526392635 0.653903609553935 -0.6615127266460389 0.6502141071607277 14.473659409169848 -2.416092896000952 0.14923929175794817 0.2576151867173626 -7.63870119408888 1.0473468176331773 -15.0474156914218 -0.6187835342929957 -6.082586384218236 2.057488887279339 -14.83238628794039 72.79182298543815 28.96334341860111 7.921504828196764 2.7140463437484525 2.33120322305856 66.89806399714725 21.665617311993312 -0.398130818963242 -4.400329935084682 4.534918074166666 -0.16179900603730502 -1.5473426662834877 -0.008245281124511988 0.02792655168194899 -56.2290597681192 0.03510749744990277 0.04508450966286351 -56.25522359534982 -38.808423653370525 0.009876238811552121 -0.03864608467761367 0.033005499425697284 -0.017914016514498643 -0.02932263461786136 0.008096419644480105 0.008005976039428448 0.020837606404023587 -36.69401295706493 0.0330251572838307 -0.0010324016489136288 0.016847445961503147 0.024364560507183677 -0.01229033156396967 -0.028452455727372015 -0.047839488116787 -0.012895296707841269 -19.792753336917038 0.04250527561647953 -0.01874789092811474 0.013215394305287944 -0.048288392008538655 0.04978035663985982 0.0416628347671178 0.01892185317352923 -0.019259350248809568 24.04010533656053 -0.0025287407192948175 -0.0347098540934047 28.888255754618086 -0.023645165416408615 0.03472488327376632 28.890778772360854 0.02681500803733915 0.0034984873387230954 5.960251341122307 1.4184651489791555 13.1893995911731 -68.78251648080376 29.673780838082735 -7.538516809040487 3.5949029271671833 -10.011541549500874 -56.521186831150466 -10.960928469471108 -0.3797483108634953 2.1561204933935834 -0.5008077784929761 0.02671535248904773 -8.10365101737646 -0.005468911019268463 -0.046437185579943585 44.605668144329364 0.00016791022775621963 0.02066497564692276 44.553029778373705 12.471381443338863 0.02346020320860923 -0.043457589216518946 0.022722573295124067 -0.027319897849084875 0.007401803024458745 -0.008593443515658907 -0.04437864800531553 -0.0316174440263386 11.145666415335988 -0.00029591451251021616 -0.007914378592374954 0.0012022706170584996 -0.018467478889081925 0.007289113285878589 -0.03444009237791831 -0.01635778720603928 -0.0278058131523717 4.727914642053541 0.009512529753195562 -0.028503481443764286 0.015131276237347125 0.021422099605810225 -0.004858977239446838 0.006970034355797089 -0.009429952340233626 -0.03488532081120552 -5.574780580386913 0.02803947566048494 -0.0203811852259242 -6.750825428121322 0.006384603926636304 0.010405988310542699 -6.7128565000118785 0.0443190750458244 0.040225345331871235 0.0030936874028151895 0.02701851591709269 -0.003907274714270686 8.08062660547633 3.526948301826407 -19.197907278683736 0.014472467887143466 10.428562196378854 0.055225558228592056 -5.657829428404391 -15.693793796549686 3.167187999979732 -0.032196018343729566 -0.0018517521086504067 0.004539517313608953 -0.04443817144578262 4.73740120467373 0.034331813602500066 12.433555855795365 -8.217337623956755 6.841686797340616 -0.038269046471047764 46.3811501916371 -0.023818053926636083 -4.340980869907025 -14.779653573851293 -3.8464629047929164 0.009478859305009786 0.01836129179417348 0.004286015788988804 -0.004916018669021679 -10.792116847678267 0.017335865468263722 
-0.018981206014101762 0.003289546973397744 0.0211678525310829 0.039109920765711056 -0.011500851496060819 -0.030492207416725255 -1.0289870983971783 1.5771717696395227 -1.0395726106126408 -0.8811253625856392 3.8991839664698347 0.3589434147060521 -1.1853582159924847 -1.942578771060658 -0.27055180125113093 0.6630469585228032 0.6472930040299679 -0.6269472202080211 0.7407931889509628 14.569835697600045 -2.80000099297543 0.19792795602321947 0.3052896374838694 -8.32772673804506 1.1533613690330906 -15.088705311084405 -0.6651680621462825 -6.461822759960158 2.0854312818138174 -15.032337380370992 73.2131176030713 28.9516078554972 7.902146186755428 2.59155537988001 2.261668022950783 66.28955237317477 21.55826998151058 -0.4187858408280648 -4.3242485637960995 4.550113183372684 -0.14941116686753647 -1.5902576712704568 -0.000409922429578735 0.02460143577677179 -56.20320243591779 0.001489752964718479 0.01435629402736332 -56.21560992547956 -38.762133299002464 -0.0315232164005745 -0.0016211579648329835 -0.005019361703855627 0.004497337190250742 0.019144039306714645 0.02555015422247485 0.041875164890709665 0.026262466944728398 -36.74092697915058 -0.0069719289568682535 0.04289566450681592 0.013430670253197653 -0.009018055575307151 0.020277051661508696 -0.0405755764325666 -0.0013416221839186362 -0.004539433233485991 -19.797396899231547 0.03283871387558914 0.007440715700192592 0.021962728304027554 -0.005435218566663679 -0.011533056370919845 0.019562219278028325 0.017080497979327793 0.011969622831124703 24.01492440538792 0.03825373516758451 0.024800856555982485 28.86885649241252 0.003717421794064999 0.016263334869318937 28.895062462662032 -0.0495177410298596 -0.018135097767747264 6.084184169919251 1.4529548375027133 13.257340833698517 -69.2734763129459 29.694723400992384 -7.122514513001211 3.586611210191148 -9.526556095606693 -54.84537114128348 -11.274165693211943 -0.34138076821883345 2.157357912982007 -0.44617255871884787 0.027572379704506156 -8.11287378387805 0.01689664863915361 -0.00592500282723278 44.53373938882808 -0.01519814226120986 0.03224591081999077 44.56449861634561 12.474099847948825 -0.019432658301912896 0.030430862003443727 0.040212382899521025 -0.0031076340806453938 -0.010359257687346237 0.032471942696952256 -0.023372961559191885 0.009082294955011673 11.150984892401032 -0.005480230716702645 -0.021753428682040454 -0.009592519378981734 -0.015495762370356434 0.01105510149621111 0.023838131900360306 -0.030615262550878937 -0.03868771726243797 4.7357712104158685 0.028017937951967907 -0.008738863383325012 0.027937835008337537 -4.1872578870602516e-05 -0.011431740297013762 -0.015499489365910089 0.027548513560583684 0.021337755593523446 -5.568567624201102 -0.0012666498923984888 0.015347104055476306 -6.709286259015381 0.022155428606945363 -0.0422586586648593 -6.708694777117979 0.025668291724839906 -0.02079782076113955 0.014846243066099364 -0.029442918379182195 0.04141402185627664 8.051392939355063 3.4818587748134466 -19.21203483015779 0.04360345208683681 10.372903107133572 -0.029844780814480044 -5.6354323697436115 -15.65634618793 3.170457725063817 -0.032066002604034013 -0.0016648665490426604 0.020685058290869335 -0.0308628973008968 4.683371594144013 0.016739518595003094 12.448227840795294 -8.280076749892178 6.9236227555954395 0.008027109127243985 46.366528393654214 0.01537718737597365 -4.284470923162279 -14.747043592299967 -3.8698433629577926 0.018499522061818777 0.017307865497276947 0.016643584210904342 -0.036885302592771486 -10.756035097646004 0.024247343848342453 
-0.013523140811897025 0.020831616577386688 -0.03124623214804108 0.010502910485008968 -0.027319885384602317 -0.006635718838314074 -0.7474070052664387 1.4661138509537652 -1.1025042095669706 -0.9059810163691484 3.9054209499653236 0.3864311388933892 -1.195557670114692 -1.971955892390662 -0.18916848636986763 0.7244232414323111 0.5868091791190967 -0.6519045734420312 0.884458844252111 14.561537530533403 -3.0931141485638003 0.1029446414873901 0.35147016543363907 -9.088475031961467 1.3044876132891385 -15.081315490231216 -0.7374087076124517 -6.682433683890821 2.202571543369904 -15.121711498450912 73.24080242790612 29.159541207788852 8.202388673011711 2.715522289806235 2.2828321488697045 66.15155908541612 21.494790866123665 -0.34628011489704247 -4.284857661606141 4.547437330209736 -0.08872467789006253 -1.6021206396173773 0.019557427927823664 -0.011946892701408788 -56.27484009400452 -0.0005285629349303275 0.0368145923795697 -56.26871345503987 -38.80872108616558 0.025731066213060174 0.04844919351006139 0.03529878584406479 -0.022788661593380388 -0.03253869207218157 -0.036602606726932954 -0.021144052097068922 -0.02407484119525057 -36.693101286847586 -0.02176225154796309 0.025355446306662113 0.030415713183769153 0.022120340043924616 -0.009541089856047054 0.019927858267630074 0.01560939313441367 0.01228730748005822 -19.760217162098957 -0.03191723961893197 0.008315805746624369 0.03684719444136323 -0.003253336356638216 0.04774235054572047 0.00598201403891924 -0.03506341885421345 0.003042534353831901 24.07555240465235 -0.014795800386106084 -0.0013741698517799577 28.882932924798805 0.00457564390307129 -0.02421717850995565 28.860416743704356 -0.01633898867779714 0.0425109558066224 6.032884747688859 1.4424404925144252 13.319245480872256 -69.60276436926665 29.78203071853026 -6.417498923267835 3.220077212383433 -8.984019329730321 -53.31521463971832 -11.752265453753948 -0.15325406760778457 2.09740562147958 -0.5197733012270281 0.07250764050241683 -8.148787533248306 -0.02764992633743257 -0.029443018946180458 44.563691565281516 0.03643864890124119 -0.030822050194702487 44.58356666017912 12.417797733018672 0.016786497331410185 0.02971909275169597 -0.016307238539751526 0.047233945216566785 -0.038458199122234894 0.015290748737728534 -0.04319312474881503 0.04016083801421914 11.068655871791703 -0.026834111821576693 0.02242770013401337 -0.043791373572180874 -0.024994836253454528 0.0012806206515142756 -0.01206931530193054 0.025912162087213846 -0.040754350234131105 4.761826782650281 -0.04932662977580725 0.01598850750522321 -0.008666690926313373 0.011559624327332941 -0.017350137036124723 -0.031576555572160006 0.002522386983032563 -0.04947700073398708 -5.616984391203646 0.00341621179289073 -0.046493965953753415 -6.724004327481873 -0.03505565950494788 0.04308496971790905 -6.723018813858762 -0.017467182619759554 -0.00045639080937836125 -0.044188130286700524 0.015114197227178806 -0.03126269024638059 8.067268639891976 3.462796102356107 -19.254201004665184 -0.037662534678403664 10.357729018489792 0.04081504039317339 -5.650771591761202 -15.706826535584145 3.192193350813236 -0.04261308222460454 -0.0017385966747388828 0.019389581105437256 -0.02151494668805926 4.731915615195655 0.032947808765646354 12.460363879288527 -8.251529410157215 6.892727245280315 -0.019402142746671062 46.36441568111753 -0.028530023920544066 -4.369024464183009 -14.742238436054603 -3.8145080300727137 -0.02914152985798461 0.019924275839250112 -0.0053294360373007995 -0.01379511611297941 -10.727837309767118 0.026428667738369823 
-0.00974154853155538 0.003013177392144968 0.02902126989512284 0.010354151512369179 0.03367106813267658 0.00892262590017841 -0.48216646313512607 1.4740957072426326 -1.148774744719498 -0.9414674274541689 3.887572342571384 0.3629459523102414 -1.2156638517223357 -1.885462662470339 -0.1119027092999372 0.728588295423678 0.5359472738346304 -0.6821004747635919 1.0010096226703984 14.517612054919468 -3.333166612003754 0.14914032465931462 0.26102461878768746 -9.768810100800883 1.320056254136237 -15.137863537090785 -0.7629628495400539 -6.906036553898245 2.208745771156123 -15.299797880436483 73.33035869042796 29.311543628313956 8.275528692184643 1.706557331307649 2.1175610864585135 66.16914140111587 21.64532629330719 -0.38057524530755493 -4.420888354049725 4.54094583488935 -0.09336171300551367 -1.575917027045316 0.02528067807660822 0.005639247874600627 -56.250816792768795 0.03975504011612407 0.034216563732155175 -56.27098922830558 -38.78063171170189 0.030854412872833133 -0.04475410634396728 0.049331157476882326 0.005478317687745775 -0.006323629214986174 -0.019506031332898056 0.049760276633090815 0.0272476725911329 -36.68172003833477 -0.008848569172753779 -0.034338715466514624 -0.01671221312536493 -0.03172967222628269 0.0026558186233767655 0.0005453347380298734 -0.04218860787881352 0.004651067742214001 -19.807494387646216 0.02829312569875535 0.01587677678742703 -0.007961815793984715 0.0019575753594308926 0.0036062240405848145 0.013077762424965878 -0.023778868314583482 -0.01704461211640254 24.084049233068537 -0.03815313486620375 -0.027077022953267655 28.835810286718928 0.030470200060246682 0.00907379044714806 28.844457813927605 -0.032432299917123465 0.028850873082245636 6.008807254011934 1.5166747945225107 13.409148538816842 -69.99623503331918 29.85301971972188 -5.56765613232867 2.801301289370092 -8.201877164832283 -51.91970636851484 -12.361915702974217 -0.15098788148856862 2.1619796065106964 -0.45862262573852397 0.04999597538868204 -8.102802203861724 -0.030712803710120303 -0.0363953517227474 44.60295577750325 -0.01696454126987571 -0.04041160844746592 44.545119988951306 12.45724775958283 -0.048560138263020525 -0.024702530864892755 -0.048711127165872066 -0.04578825710757554 0.0014176409278822948 -0.008282905412417014 -0.028425976182658613 0.010523776277117923 11.13201607987706 0.02976728534441543 0.013429711693015182 0.04877806981428776 0.02818039155534262 0.008163136029824448 0.027283255157339377 0.041710218016736696 0.020804818764861434 4.783154751975538 -0.0028120815921572327 -0.020363835225068547 -0.03795958281799973 0.0038990475826174015 0.04554423035242531 -0.04426663599622674 0.0336829414191361 0.018102432496078468 -5.570097226501314 -0.02875348847941471 -0.0353457099852327 -6.680339393511083 0.03966661703040822 -0.0272978213096083 -6.705170741670029 -0.004337489823617995 0.008148369435056806 0.007682616242809734 -0.025453828860726998 -0.004688528709359829 8.087145584708471 3.472203895488478 -19.211658896830755 -0.027388729300984033 10.436369909952088 0.02263081402666174 -5.657907806999056 -15.66869338233417 3.222074292996587 0.0223878013279542 -0.04244793930041035 -0.01571833536501654 0.0012781953106183236 4.661142417488827 -0.04836598841064285 12.504000675762372 -8.25298517077866 6.847257000579656 -0.03607930035221374 46.416670786823815 0.005413719247460931 -4.326475001055833 -14.72563218502366 -3.809497860053868 -0.0033533124836159192 0.037960515139084175 -0.020722059294698038 -0.023311031125493705 -10.781681763998229 -0.025427168102988437 
